<svg xmlns="http://www.w3.org/2000/svg" viewBox="0 0 128 128">
  <defs>
    <linearGradient id="bg" x1="0%" y1="0%" x2="100%" y2="100%">
      <stop offset="0%" style="stop-color:#6B5B95"/>
      <stop offset="100%" style="stop-color:#9B59B6"/>
    </linearGradient>
  </defs>
  <!-- Background circle -->
  <circle cx="64" cy="64" r="60" fill="url(#bg)"/>
  <!-- Ghost body -->
  <path d="M64 20 C40 20 28 40 28 60 L28 95 Q34 90 40 95 Q46 100 52 95 Q58 90 64 95 Q70 90 76 95 Q82 100 88 95 Q94 90 100 95 L100 60 C100 40 88 20 64 20 Z" fill="white" opacity="0.95"/>
  <!-- Eyes -->
  <ellipse cx="50" cy="55" rx="8" ry="10" fill="#333"/>
  <ellipse cx="78" cy="55" rx="8" ry="10" fill="#333"/>
  <!-- Eye shine -->
  <circle cx="52" cy="52" r="3" fill="white"/>
  <circle cx="80" cy="52" r="3" fill="white"/>
  <!-- Smile -->
  <path d="M50 72 Q64 82 78 72" stroke="#333" stroke-width="3" fill="none" stroke-linecap="round"/>
  <!-- Blush -->
  <ellipse cx="40" cy="68" rx="6" ry="4" fill="#FFB6C1" opacity="0.6"/>
  <ellipse cx="88" cy="68" rx="6" ry="4" fill="#FFB6C1" opacity="0.6"/>
</svg>
